<svg height='100px' width='100px'  fill="#00AEF0" xmlns="http://www.w3.org/2000/svg" xmlns:xlink="http://www.w3.org/1999/xlink" version="1.1" x="0px" y="0px" viewBox="-459 461 80 80" style="enable-background:new -459 461 80 80;" xml:space="preserve"><g><polygon points="-435.8,503.9 -440,508.2 -427.7,506.2  "></polygon><polygon points="-441.9,492.6 -436.2,503.2 -436.2,503.2 -434.3,496.2  "></polygon><polygon points="-441,509.2 -441.3,509.5 -444.5,522 -428.1,507  "></polygon><polygon points="-433.1,479.9 -442.2,491.6 -432.4,496.2 -421.3,498.3  "></polygon><polygon points="-441.4,508.4 -437.4,504.4 -442.7,505.4  "></polygon><polygon points="-436.9,473.8 -442.5,490.6 -433.5,479.1  "></polygon><polygon points="-433,478.5 -419.5,461.1 -436.8,473.3 -436.4,473.1  "></polygon><polygon points="-426.8,541 -426.8,507 -444.4,523  "></polygon><polygon points="-442.8,492.6 -442.8,504.6 -437,503.5  "></polygon><polygon points="-400.9,503.9 -408.9,506.2 -396.6,508.2  "></polygon><polygon points="-400.5,503.2 -394.8,492.6 -402.4,496.2 -400.5,503.2  "></polygon><polygon points="-395.3,509.5 -395.7,509.2 -408.6,507 -392.2,522  "></polygon><polygon points="-416.5,498.6 -416.5,498.6 -416.5,498.6 -416.5,498.6 -404.1,479.2 -418.3,461 -432.5,479.2    -420.2,498.6 -420.2,498.6 -420.2,498.6 -420.2,498.6 -420.2,498.6 -424,509.3 -418.3,512.4 -412.6,509.3 -416.5,498.6  "></polygon><polygon points="-403.6,479.9 -415.4,498.3 -404.2,496.2 -394.5,491.6  "></polygon><polygon points="-394,505.4 -399.3,504.4 -395.3,508.4  "></polygon><polygon points="-394.2,490.6 -399.7,473.8 -403.1,479.1  "></polygon><polygon points="-400.2,473.1 -399.9,473.3 -417.2,461.1 -403.7,478.5  "></polygon><polygon points="-409.9,541 -392.3,523 -409.9,507  "></polygon><polygon points="-393.8,504.6 -393.8,492.6 -399.7,503.5  "></polygon></g></svg>